<svg width="18" height="19" viewBox="0 0 18 19" fill="none" xmlns="http://www.w3.org/2000/svg">
<path d="M1.5207 1.58564C1.1873 1.91904 1 2.37122 1 2.84272V3.73161C1 11.0952 6.96978 17.0649 14.3333 17.0649H15.2222C15.6937 17.0649 16.1459 16.8776 16.4793 16.5442C16.8127 16.2108 17 15.7587 17 15.2872V12.3725C17 12.1859 16.9413 12.0039 16.8322 11.8525C16.7231 11.7011 16.5691 11.5879 16.392 11.5289L12.3982 10.1974C12.1953 10.1299 11.9748 10.1379 11.7772 10.2199C11.5796 10.3018 11.4183 10.4523 11.3227 10.6436L10.3182 12.6498C8.14174 11.6664 6.39851 9.9232 5.41511 7.74672L7.42133 6.74227C7.61267 6.64668 7.76312 6.4853 7.84508 6.28774C7.92704 6.09018 7.93502 5.86969 7.86756 5.66672L6.536 1.67294C6.47707 1.49601 6.36399 1.3421 6.21276 1.23299C6.06153 1.12387 5.87982 1.06508 5.69333 1.06494H2.77778C2.30628 1.06494 1.8541 1.25224 1.5207 1.58564Z" stroke="#F7F9FB" stroke-width="2" stroke-linecap="round" stroke-linejoin="round"/>
</svg>
